<svg width="162" height="50" viewBox="0 0 162 50" fill="none" xmlns="http://www.w3.org/2000/svg">
<path d="M29.1143 0L23.4443 9.77895L41.9642 40.4214H52.5719L29.1143 0Z" fill="white"/>
<path d="M4.90536 41.6562L0 50.0004H58.2098L53.2526 41.6562H4.90536Z" fill="white"/>
<path d="M16.3622 40.4209H5.65723L22.3821 11.4072L28.1687 20.682L16.3622 40.4209Z" fill="white"/>
<path d="M69.8989 17.0083C72.437 16.8749 74.9428 17.625 76.9876 19.1306C79.0325 20.6361 80.4895 22.8034 81.1093 25.262H74.7784C74.3499 24.3259 73.6511 23.5386 72.7715 23.0009C71.8918 22.4632 70.8713 22.1995 69.8406 22.2436C66.3025 22.2436 63.8855 24.8289 63.8855 29.0236C63.8855 33.2183 66.3025 35.81 69.8406 35.81C70.8685 35.8563 71.8869 35.5965 72.7662 35.0635C73.6455 34.5306 74.346 33.7488 74.7784 32.8175H81.1093C79.7615 37.9171 75.5236 41.0388 69.8989 41.0388C68.395 41.0968 66.8944 40.8585 65.4829 40.3375C64.0714 39.8165 62.7767 39.023 61.673 38.0025C60.5692 36.982 59.6779 35.7545 59.0502 34.3901C58.4225 33.0258 58.0705 31.5514 58.0146 30.0513C58.0146 29.7216 58.0146 29.4049 58.0146 29.0494C57.8612 26.018 58.9212 23.05 60.9615 20.798C63.0018 18.546 65.8553 17.1945 68.8945 17.0407C69.2315 17.0407 69.5425 17.0407 69.8924 17.0407" fill="white"/>
<path d="M89.4554 16H83.7012V40.8449H89.4554V16Z" fill="white"/>
<path d="M101.333 41.1095C100.124 41.1775 98.9128 41.0071 97.7694 40.6079C96.6261 40.2086 95.5729 39.5885 94.6701 38.7829C93.7673 37.9772 93.0326 37.002 92.5081 35.9129C91.9836 34.8237 91.6795 33.6422 91.6133 32.4357C91.6133 32.1126 91.6133 31.7894 91.6133 31.4727C91.6789 28.9337 92.7362 26.5207 94.5598 24.7481C96.3834 22.9755 98.829 21.9834 101.375 21.9834C103.922 21.9834 106.367 22.9755 108.191 24.7481C110.015 26.5207 111.072 28.9337 111.138 31.4727C111.231 33.9259 110.348 36.3163 108.681 38.1227C107.014 39.9291 104.699 41.0051 102.24 41.1159C101.949 41.1159 101.657 41.1159 101.366 41.1159M101.366 36.1456C103.42 36.1456 105.338 34.6332 105.338 31.4792C105.338 28.3251 103.452 26.8191 101.45 26.8191C99.4476 26.8191 97.5619 28.2992 97.5619 31.4792C97.5619 34.6591 99.3115 36.1456 101.398 36.1456" fill="white"/>
<path d="M127.254 26.6705L119.277 36.1069H127.416V40.838H112.849V36.2749L120.625 26.8321H112.913V22.1074H127.254V26.6705Z" fill="white"/>
<path d="M138.671 41.1094C133.15 41.1094 129.178 37.4124 129.178 31.4726C129.178 25.5329 133.079 21.8294 138.671 21.8294C141.014 21.6934 143.315 22.4902 145.069 24.0449C146.824 25.5997 147.888 27.7852 148.028 30.1218C148.047 30.4684 148.047 30.8158 148.028 31.1624C148.023 31.724 147.988 32.2849 147.924 32.8428H134.893C134.862 33.7641 135.198 34.6602 135.829 35.334C136.459 36.0079 137.333 36.4044 138.256 36.4364H138.464C139.089 36.4752 139.711 36.3218 140.246 35.9971C140.782 35.6724 141.204 35.1919 141.457 34.6202H147.6C147.079 36.5518 145.909 38.2467 144.287 39.4228C142.664 40.5988 140.687 41.1849 138.684 41.0835M134.945 29.6371H142.151C142.151 28.78 141.809 27.958 141.202 27.3519C140.594 26.7459 139.77 26.4054 138.911 26.4054C138.814 26.399 138.716 26.399 138.619 26.4054C137.709 26.3721 136.821 26.689 136.138 27.2904C135.455 27.8919 135.031 28.732 134.951 29.6371" fill="white"/>
<path d="M155.966 40.8388H150.192V22.0953H155.947V25.217C156.57 24.211 157.439 23.3791 158.473 22.7993C159.506 22.2194 160.671 21.9105 161.856 21.9014V27.9769H160.275C157.547 27.9769 155.966 28.9205 155.966 32.1392V40.8388Z" fill="white"/>
</svg>
